<mxfile host="app.diagrams.net" modified="2023-11-04T03:55:54.827Z" agent="Mozilla/5.0 (Windows NT 10.0; Win64; x64) AppleWebKit/537.36 (KHTML, like Gecko) Chrome/118.0.0.0 Safari/537.36" etag="C6PNzK8T49peQrUEuHiJ" version="22.0.8" type="device">
  <diagram name="Page-1" id="mRgb6biELGjg9NK95t7G">
    <mxGraphModel dx="2901" dy="1148" grid="1" gridSize="10" guides="1" tooltips="1" connect="1" arrows="1" fold="1" page="1" pageScale="1" pageWidth="827" pageHeight="1169" math="0" shadow="0">
      <root>
        <mxCell id="0" />
        <mxCell id="1" parent="0" />
        <mxCell id="w9CObdMbceUlI3j7XBJq-1" value="&lt;font style=&quot;font-size: 18px;&quot;&gt;abstract class&lt;br&gt;&lt;b&gt;Animal&lt;/b&gt;&lt;/font&gt;&lt;br&gt;&lt;div style=&quot;&quot;&gt;&lt;b&gt;static protected Integer animalCount = 0;&lt;/b&gt;&lt;/div&gt;&lt;div style=&quot;&quot;&gt;&lt;b&gt;&amp;nbsp; &amp;nbsp; protected String id;&lt;/b&gt;&lt;/div&gt;&lt;div style=&quot;&quot;&gt;&lt;b&gt;&amp;nbsp; &amp;nbsp; protected String type;&lt;/b&gt;&lt;/div&gt;&lt;div style=&quot;&quot;&gt;&lt;b&gt;&amp;nbsp; &amp;nbsp; protected String name;&lt;/b&gt;&lt;/div&gt;&lt;div style=&quot;&quot;&gt;&lt;b&gt;&amp;nbsp; &amp;nbsp; protected String birthDay;&lt;/b&gt;&lt;/div&gt;&lt;div style=&quot;&quot;&gt;&lt;b&gt;&amp;nbsp; &amp;nbsp; protected String commands;&lt;/b&gt;&lt;/div&gt;" style="rounded=0;whiteSpace=wrap;html=1;" vertex="1" parent="1">
          <mxGeometry x="250" y="130" width="280" height="160" as="geometry" />
        </mxCell>
        <mxCell id="w9CObdMbceUlI3j7XBJq-2" value="&lt;font style=&quot;font-size: 18px;&quot;&gt;abstract class&amp;nbsp;&lt;b&gt;Pet&amp;nbsp;&lt;br&gt;&lt;/b&gt;&lt;/font&gt;&lt;font style=&quot;font-size: 18px;&quot;&gt;extends Animal&lt;/font&gt;&lt;br&gt;&lt;b&gt;static protected Integer typeCount = 0;&lt;/b&gt;" style="rounded=0;whiteSpace=wrap;html=1;" vertex="1" parent="1">
          <mxGeometry x="-260" y="290" width="230" height="130" as="geometry" />
        </mxCell>
        <mxCell id="w9CObdMbceUlI3j7XBJq-17" style="edgeStyle=orthogonalEdgeStyle;rounded=0;orthogonalLoop=1;jettySize=auto;html=1;entryX=0;entryY=0.5;entryDx=0;entryDy=0;exitX=0.446;exitY=0.008;exitDx=0;exitDy=0;exitPerimeter=0;" edge="1" parent="1" source="w9CObdMbceUlI3j7XBJq-5" target="w9CObdMbceUlI3j7XBJq-2">
          <mxGeometry relative="1" as="geometry" />
        </mxCell>
        <mxCell id="w9CObdMbceUlI3j7XBJq-5" value="&lt;br&gt;&lt;div&gt;&lt;font style=&quot;font-size: 18px;&quot;&gt;public class &lt;b&gt;Dog&lt;/b&gt; extends Pet&lt;/font&gt;&lt;/div&gt;&lt;div&gt;&amp;nbsp; &amp;nbsp; public static Integer classCounter = 0&lt;/div&gt;" style="rounded=0;whiteSpace=wrap;html=1;" vertex="1" parent="1">
          <mxGeometry x="-600" y="520" width="280" height="125" as="geometry" />
        </mxCell>
        <mxCell id="w9CObdMbceUlI3j7XBJq-25" style="edgeStyle=orthogonalEdgeStyle;rounded=0;orthogonalLoop=1;jettySize=auto;html=1;entryX=1;entryY=0.5;entryDx=0;entryDy=0;exitX=0.5;exitY=0;exitDx=0;exitDy=0;" edge="1" parent="1" source="w9CObdMbceUlI3j7XBJq-10" target="w9CObdMbceUlI3j7XBJq-1">
          <mxGeometry relative="1" as="geometry" />
        </mxCell>
        <mxCell id="w9CObdMbceUlI3j7XBJq-10" value="&lt;font style=&quot;font-size: 18px;&quot;&gt;abstract class&amp;nbsp;&lt;b&gt;PackAnimal&lt;br&gt;&lt;/b&gt;&lt;/font&gt;&lt;font style=&quot;font-size: 18px;&quot;&gt;extends Animal&lt;/font&gt;&lt;br&gt;&lt;b&gt;static protected Integer typeCount = 0;&lt;/b&gt;" style="rounded=0;whiteSpace=wrap;html=1;" vertex="1" parent="1">
          <mxGeometry x="790" y="300" width="240" height="130" as="geometry" />
        </mxCell>
        <mxCell id="w9CObdMbceUlI3j7XBJq-11" value="&lt;br&gt;&lt;div&gt;&lt;font style=&quot;font-size: 18px;&quot;&gt;public class &lt;b&gt;Cat&lt;/b&gt; extends Pet&lt;/font&gt;&lt;/div&gt;&lt;div&gt;&amp;nbsp; &amp;nbsp; public static Integer classCounter = 0&lt;/div&gt;" style="rounded=0;whiteSpace=wrap;html=1;" vertex="1" parent="1">
          <mxGeometry x="-290" y="520" width="280" height="125" as="geometry" />
        </mxCell>
        <mxCell id="w9CObdMbceUlI3j7XBJq-19" style="edgeStyle=orthogonalEdgeStyle;rounded=0;orthogonalLoop=1;jettySize=auto;html=1;entryX=1;entryY=0.5;entryDx=0;entryDy=0;exitX=0.5;exitY=0;exitDx=0;exitDy=0;" edge="1" parent="1" source="w9CObdMbceUlI3j7XBJq-12" target="w9CObdMbceUlI3j7XBJq-2">
          <mxGeometry relative="1" as="geometry" />
        </mxCell>
        <mxCell id="w9CObdMbceUlI3j7XBJq-12" value="&lt;br&gt;&lt;div&gt;&lt;font style=&quot;font-size: 18px;&quot;&gt;public class &lt;b&gt;Hamster&lt;/b&gt; extends Pet&lt;/font&gt;&lt;/div&gt;&lt;div&gt;&amp;nbsp; &amp;nbsp; public static Integer classCounter = 0&lt;/div&gt;" style="rounded=0;whiteSpace=wrap;html=1;" vertex="1" parent="1">
          <mxGeometry x="70" y="522" width="280" height="125" as="geometry" />
        </mxCell>
        <mxCell id="w9CObdMbceUlI3j7XBJq-21" style="edgeStyle=orthogonalEdgeStyle;rounded=0;orthogonalLoop=1;jettySize=auto;html=1;entryX=0;entryY=0.5;entryDx=0;entryDy=0;exitX=0.5;exitY=0;exitDx=0;exitDy=0;" edge="1" parent="1" source="w9CObdMbceUlI3j7XBJq-13" target="w9CObdMbceUlI3j7XBJq-10">
          <mxGeometry relative="1" as="geometry" />
        </mxCell>
        <mxCell id="w9CObdMbceUlI3j7XBJq-13" value="&lt;br&gt;&lt;div&gt;&lt;font style=&quot;font-size: 18px;&quot;&gt;public class &lt;b&gt;Horse&amp;nbsp;&lt;/b&gt;extends PackAnimal&lt;/font&gt;&lt;/div&gt;&lt;div&gt;&amp;nbsp; &amp;nbsp; public static Integer classCounter = 0&lt;/div&gt;" style="rounded=0;whiteSpace=wrap;html=1;" vertex="1" parent="1">
          <mxGeometry x="460" y="520" width="280" height="125" as="geometry" />
        </mxCell>
        <mxCell id="w9CObdMbceUlI3j7XBJq-23" style="edgeStyle=orthogonalEdgeStyle;rounded=0;orthogonalLoop=1;jettySize=auto;html=1;entryX=1;entryY=0.5;entryDx=0;entryDy=0;exitX=0.5;exitY=0;exitDx=0;exitDy=0;" edge="1" parent="1" source="w9CObdMbceUlI3j7XBJq-14" target="w9CObdMbceUlI3j7XBJq-10">
          <mxGeometry relative="1" as="geometry" />
        </mxCell>
        <mxCell id="w9CObdMbceUlI3j7XBJq-14" value="&lt;br&gt;&lt;div&gt;&lt;font style=&quot;font-size: 18px;&quot;&gt;public class &lt;b&gt;Camel&amp;nbsp;&lt;/b&gt;extends PackAnimal&lt;/font&gt;&lt;/div&gt;&lt;div&gt;&amp;nbsp; &amp;nbsp; public static Integer classCounter = 0&lt;/div&gt;" style="rounded=0;whiteSpace=wrap;html=1;" vertex="1" parent="1">
          <mxGeometry x="1130" y="522" width="280" height="125" as="geometry" />
        </mxCell>
        <mxCell id="w9CObdMbceUlI3j7XBJq-22" style="edgeStyle=orthogonalEdgeStyle;rounded=0;orthogonalLoop=1;jettySize=auto;html=1;entryX=0.5;entryY=1;entryDx=0;entryDy=0;" edge="1" parent="1" source="w9CObdMbceUlI3j7XBJq-15" target="w9CObdMbceUlI3j7XBJq-10">
          <mxGeometry relative="1" as="geometry" />
        </mxCell>
        <mxCell id="w9CObdMbceUlI3j7XBJq-15" value="&lt;br&gt;&lt;div&gt;&lt;font style=&quot;font-size: 18px;&quot;&gt;public class &lt;b&gt;Donkey&amp;nbsp;&lt;/b&gt;extends PackAnimal&lt;/font&gt;&lt;/div&gt;&lt;div&gt;&amp;nbsp; &amp;nbsp; public static Integer classCounter = 0&lt;/div&gt;" style="rounded=0;whiteSpace=wrap;html=1;" vertex="1" parent="1">
          <mxGeometry x="770" y="520" width="280" height="125" as="geometry" />
        </mxCell>
        <mxCell id="w9CObdMbceUlI3j7XBJq-18" style="edgeStyle=orthogonalEdgeStyle;rounded=0;orthogonalLoop=1;jettySize=auto;html=1;entryX=0.47;entryY=1.015;entryDx=0;entryDy=0;entryPerimeter=0;" edge="1" parent="1" source="w9CObdMbceUlI3j7XBJq-11" target="w9CObdMbceUlI3j7XBJq-2">
          <mxGeometry relative="1" as="geometry" />
        </mxCell>
        <mxCell id="w9CObdMbceUlI3j7XBJq-20" style="edgeStyle=orthogonalEdgeStyle;rounded=0;orthogonalLoop=1;jettySize=auto;html=1;entryX=-0.007;entryY=0.45;entryDx=0;entryDy=0;entryPerimeter=0;exitX=0.5;exitY=0;exitDx=0;exitDy=0;" edge="1" parent="1" source="w9CObdMbceUlI3j7XBJq-2" target="w9CObdMbceUlI3j7XBJq-1">
          <mxGeometry relative="1" as="geometry" />
        </mxCell>
      </root>
    </mxGraphModel>
  </diagram>
</mxfile>
